<?xml version="1.0" encoding="UTF-8"?>
<svg xmlns="http://www.w3.org/2000/svg" width="500" height="500">
<g fill="#FFF" stroke="#000" stroke-width="5">
<path d="m208,72V5h84v67a178,178 0 0,1 136,136h67v84h-67a178,178 0 0,1-136,136v67h-84v-67a178,178 0 0,1-136-136h-67v-84h67a178,178 0 0,1 136-136z"/>
<path stroke-width="56" d="M251,108a142,142 0 1,1-2,0m1-90v464M18,250h464"/>
<path d="M160,210a99,99 0 0,1 50-50v50h-50zm180,0a99,99 0 0,0-50-50v50h50zm0,80a99,99 0 0,1-50,50v-50h50zm-180,0a99,99 0 0,0 50,50v-50h-50z"/>
</g></svg>