<?xml version="1.0" encoding="utf-8"?>
<!-- Generator: Adobe Illustrator 21.0.2, SVG Export Plug-In . SVG Version: 6.00 Build 0)  -->
<svg version="1.1"
	 id="svg2" inkscape:output_extension="org.inkscape.output.svg.inkscape" inkscape:version="0.46dev+devel" sodipodi:docbase="C:\Documents and Settings\Flanker\Desktop" sodipodi:docname="Italy-Royal-Airforce.svg" sodipodi:version="0.32" xmlns:cc="http://creativecommons.org/ns#" xmlns:dc="http://purl.org/dc/elements/1.1/" xmlns:inkscape="http://www.inkscape.org/namespaces/inkscape" xmlns:rdf="http://www.w3.org/1999/02/22-rdf-syntax-ns#" xmlns:sodipodi="http://sodipodi.sourceforge.net/DTD/sodipodi-0.dtd" xmlns:svg="http://www.w3.org/2000/svg"
	 xmlns="http://www.w3.org/2000/svg" xmlns:xlink="http://www.w3.org/1999/xlink" x="0px" y="0px" viewBox="0 0 600 600"
	 style="enable-background:new 0 0 600 600;" xml:space="preserve">
<sodipodi:namedview  bordercolor="#666666" borderopacity="1.0" gridtolerance="10.0" guidetolerance="10.0" id="base" inkscape:current-layer="svg2" inkscape:cx="233.15815" inkscape:cy="93.272163" inkscape:pageopacity="0.0" inkscape:pageshadow="2" inkscape:showpageshadow="false" inkscape:window-height="1003" inkscape:window-width="1280" inkscape:window-x="0" inkscape:window-y="0" inkscape:zoom="0.44833333" objecttolerance="10.0" pagecolor="#ffffff" showgrid="false">
	</sodipodi:namedview>
<path id="path1873" d="M300,0C134.4,0,0,134.4,0,300s134.4,300,300,300s300-134.4,300-300S465.6,0,300,0z M300,29.3
	c148.5,0,269,121.3,269,270.7S448.5,570.7,300,570.7S31,449.4,31,300S151.5,29.3,300,29.3z"/>
<g id="g2804" transform="matrix(1.4634146,0,0,1.4634146,75.183599,-30.90035)">
	<path id="path2806" d="M145.6,68.1v11.2h-11.2v302.6h11.2V393h14.9v-11.2h11.2V240.5h54.8v-32.4c0-29.7-14.9-46.2-14.9-46.2
		l-10.7,3.5c0,0,15.6,48.4-17.6,48.4h-11.5V79.2h-11.2V68.1H145.6z"/>
	<rect id="rect2808" x="177.5" y="249.4" width="4.5" height="132.4"/>
</g>
</svg>
