<?xml version="1.0" encoding="utf-8"?>
<!-- Generator: Adobe Illustrator 17.0.0, SVG Export Plug-In . SVG Version: 6.00 Build 0)  -->
<!DOCTYPE svg PUBLIC "-//W3C//DTD SVG 1.1//EN" "http://www.w3.org/Graphics/SVG/1.1/DTD/svg11.dtd">
<svg version="1.1" id="Layer_1" xmlns="http://www.w3.org/2000/svg" xmlns:xlink="http://www.w3.org/1999/xlink" x="0px" y="0px"
	 width="422.065px" height="841.89px" viewBox="89.663 0 422.065 841.89" enable-background="new 89.663 0 422.065 841.89"
	 xml:space="preserve">
<path fill="#B87333" stroke="#FCFCFC" stroke-miterlimit="10" d="M52.897,266.806c2.224,2.75,4.532,5.513,6.924,8.287
	c5.058,5.848,10.476,11.66,16.323,17.4l0,0l0,0c17.271,17.086,37.142,31.325,58.872,42.19c-3.241-10.973-4.896-22.353-4.915-33.795
	c-0.034-13.832,2.396-27.559,7.175-40.539c-5.548-4.334-10.853-8.969-15.893-13.884l0,0c-5.13-4.987-9.902-10.189-14.35-15.462
	c-10.62-12.566-20.07-26.076-28.234-40.36c-3.588-6.529-6.673-12.305-8.861-16.826c-1.413-5.576-3.846-10.843-7.175-15.534
	c-4.033-6.463-10.222-11.292-17.471-13.633c-3.705-1.392-7.63-2.109-11.588-2.117h-149.96L33.309,350.145L52.897,266.806z"/>
<path fill="#B87333" stroke="#FCFCFC" stroke-miterlimit="10" d="M389.051,449.197c1.248,5.815-2.454,11.541-8.269,12.79
	c-5.815,1.248-11.541-2.454-12.79-8.269l0,0c0-0.359-0.179-0.717-0.251-1.076l-1.363,0.969c-8.051,5.671-18.112,7.701-27.732,5.597
	c-10.443,9.179-23.988,14.04-37.885,13.597h-0.287c-13.981,0.496-27.623-4.367-38.136-13.597
	c-9.645,2.053-19.709-0.043-27.732-5.776l-1.327-0.969c0,0.359-0.215,0.717-0.287,1.076c-1.248,5.815-6.974,9.518-12.79,8.269
	c-5.815-1.248-9.518-6.974-8.269-12.79c0.789-3.588,1.794-6.924,2.87-10.296c-3.922-3.085-7.713-6.171-11.373-9.256v342.001
	c0,24.499,19.861,44.36,44.36,44.36s44.36-19.861,44.36-44.36V479.691c2.669,0.297,5.351,0.452,8.036,0.466h0.574
	c2.673-0.015,5.344-0.171,8-0.466v291.955c0,24.499,19.861,44.36,44.36,44.36c24.499,0,44.36-19.861,44.36-44.36V429.645
	c-3.635,3.085-7.414,6.171-11.337,9.256C387.329,442.273,388.262,445.681,389.051,449.197z"/>
<path fill="#B87333" stroke="#FCFCFC" stroke-miterlimit="10" d="M238.302,324.781c1.618-17.759-11.466-33.467-29.224-35.085
	c-0.005,0-0.009-0.001-0.014-0.001c-1.901,0-3.767-0.395-5.632-0.646c-1.068,3.856-1.611,7.838-1.614,11.839
	c0,11.516,4.269,23.14,13.166,36.521c2.697,3.992,5.608,7.836,8.718,11.516C232.013,343.542,237.395,334.642,238.302,324.781z"/>
<path fill="#B87333" stroke="#FCFCFC" stroke-miterlimit="10" d="M386.001,337.445c8.897-13.382,13.095-25.113,13.166-36.521
	c-0.018-4.002-0.573-7.984-1.65-11.839c-1.866,0.251-3.588,0.502-5.632,0.646c-17.756,1.647-30.815,17.376-29.168,35.132
	c0.912,9.839,6.28,18.718,14.567,24.099C380.396,345.283,383.306,341.438,386.001,337.445z"/>
<path fill="#B87333" stroke="#FCFCFC" stroke-miterlimit="10" d="M479.6,246.429L479.6,246.429
	c-5.085,4.932-10.438,9.579-16.036,13.92c4.783,12.979,7.213,26.707,7.175,40.539c-0.017,11.442-1.672,22.822-4.915,33.795
	c21.664-10.796,41.485-24.951,58.728-41.938l0,0l0,0c5.884-5.776,11.372-11.66,16.467-17.543c2.392-2.774,4.7-5.549,6.924-8.323
	l19.552,83.375l149.888-207.683H567.173c-3.944,0.002-7.855,0.706-11.552,2.081c-7.314,2.329-13.559,7.188-17.615,13.704
	c-3.326,4.667-5.758,9.91-7.175,15.462c-9.927,20.469-22.298,39.659-36.844,57.15C489.456,236.361,484.654,241.521,479.6,246.429z"
	/>
<path fill="#B87333" stroke="#FCFCFC" stroke-miterlimit="10" d="M150.551,248.115c-8.678,16.241-13.247,34.359-13.31,52.773
	c0,23.104,7.606,48.073,24.072,72.504c15.587,22.206,34.486,41.891,56.038,58.369c7.403-17.95,17.625-34.602,30.279-49.329
	c-14.748-11.779-27.756-25.584-38.638-41.006c-11.193-16.861-14.35-29.741-14.35-40.503c0.096-9.11,2.437-18.056,6.816-26.046
	c2.751-5.115,6.033-9.925,9.794-14.35c-0.499,6.027-1.704,11.975-3.588,17.723c-0.718,1.363-1.327,2.691-1.901,3.982l3.803,0.431
	c21.7,2.032,37.643,21.271,35.611,42.971c-1.088,11.612-7.255,22.147-16.848,28.78c7.45,8.049,15.432,15.588,23.893,22.566
	c2.224-2.44,3.588-3.875,3.588-4.018l0,0c4.349-4.052,11.159-3.812,15.211,0.537c3.851,4.133,3.851,10.541,0,14.674l-1.22,1.256
	l-0.718,0.789l6.458,4.664c16.24,11.351,20.203,33.717,8.853,49.957c-3.565,5.101-8.396,9.187-14.019,11.856
	c8.767,6.247,19.34,9.448,30.1,9.112c10.751,0.352,21.317-2.851,30.064-9.112c-17.936-8.42-25.65-29.785-17.23-47.72
	c2.642-5.627,6.7-10.471,11.777-14.057c2.224-1.543,4.377-3.121,6.493-4.664l-0.718-0.753l-1.22-1.256
	c-3.928-4.461-3.496-11.262,0.966-15.19c4.088-3.599,10.219-3.577,14.281,0.051c0,0,1.471,1.579,3.588,3.982
	c8.448-6.967,16.419-14.494,23.857-22.53c-17.927-12.395-22.412-36.976-10.017-54.903c6.632-9.593,17.168-15.761,28.78-16.848
	l3.767-0.431c-0.574-1.327-1.148-2.655-1.83-3.982c-1.886-5.747-3.09-11.695-3.588-17.723c3.761,4.425,7.043,9.235,9.794,14.35
	c4.385,7.987,6.727,16.934,6.816,26.046c0,10.763-3.121,23.642-14.35,40.503c-10.883,15.41-23.891,29.203-38.638,40.97
	c12.778,14.657,23.133,31.262,30.673,49.185c21.536-16.471,40.423-36.143,56.002-58.334c16.467-24.431,24.144-49.401,24.072-72.504
	c-0.097-18.423-4.704-36.541-13.417-52.773c-7.256-13.475-16.522-25.766-27.481-36.449c-11.206-11.099-23.765-20.742-37.382-28.7
	l-1.579-0.897l0,0l-0.215-0.215c-2.862-1.648-5.997-2.766-9.256-3.301c-26.348,40.746-80.739,52.418-121.486,26.07
	c-10.436-6.748-19.322-15.634-26.07-26.07c-3.283,0.528-6.443,1.646-9.328,3.301l-0.431,0.215l0,0l-1.579,0.897
	c-13.604,7.961-26.152,17.604-37.346,28.7C167.215,222.337,157.876,234.628,150.551,248.115z"/>
<path fill="#B87333" stroke="#FCFCFC" stroke-miterlimit="10" d="M255.235,452.964c15.851,0.005,28.705-12.84,28.71-28.691
	c0.003-9.338-4.537-18.094-12.171-23.472c-2.44-1.722-4.807-3.588-7.175-5.13c-2.798,3.301-6.171,7.498-9.758,12.521
	c-8.332,11.333-14.922,23.849-19.552,37.131l3.588,2.44C243.671,451.124,249.379,452.939,255.235,452.964z"/>
<path fill="#B87333" stroke="#FCFCFC" stroke-miterlimit="10" d="M345.749,452.964c5.897-0.013,11.646-1.842,16.467-5.238
	l3.588-2.475c-6.601-20.341-20.808-39.463-29.346-49.616c-2.332,1.686-4.664,3.588-7.175,5.13
	c-12.958,9.129-16.062,27.034-6.933,39.992c5.378,7.634,14.134,12.174,23.472,12.171L345.749,452.964z"/>
<circle fill="#B87333" stroke="#FCFCFC" stroke-miterlimit="10" cx="300.472" cy="130.84" r="80.684"/>
</svg>
