<?xml version="1.0" encoding="utf-8"?>
<!-- Generator: Adobe Illustrator 17.0.0, SVG Export Plug-In . SVG Version: 6.00 Build 0)  -->
<!DOCTYPE svg PUBLIC "-//W3C//DTD SVG 1.1//EN" "http://www.w3.org/Graphics/SVG/1.1/DTD/svg11.dtd">
<svg version="1.1" id="Layer_1" xmlns="http://www.w3.org/2000/svg" xmlns:xlink="http://www.w3.org/1999/xlink" x="0px" y="0px"
	 width="424.626px" height="841.89px" viewBox="88.583 0 424.626 841.89" enable-background="new 88.583 0 424.626 841.89"
	 xml:space="preserve">
<g>
	<path fill="#808080" stroke="#FFFFFF" stroke-width="2.8346" stroke-miterlimit="10" d="M53,266.88
		c2.152,2.87,4.663,5.381,6.815,8.25c5.022,5.739,10.403,11.837,16.501,17.577l0,0l0,0c16.142,15.783,35.512,30.49,58.828,41.969
		c-3.228-11.479-5.022-22.599-5.022-33.719c0-13.631,2.511-27.262,7.174-40.534c-5.739-4.305-11.12-8.968-16.142-13.99l0,0
		c-5.022-5.022-10.044-10.044-14.348-15.424c-11.837-13.99-21.164-28.338-27.979-40.175c-3.587-6.457-6.815-12.196-8.968-16.859
		c-1.435-5.739-3.946-11.12-7.174-15.424c-3.946-6.457-10.403-11.479-17.577-13.631c-3.587-1.435-7.533-2.152-11.479-2.152h-149.94
		L33.271,350.459L53,266.88z"/>
	<path fill="#808080" stroke="#FFFFFF" stroke-width="2.8346" stroke-miterlimit="10" d="M389.111,449.104
		c1.076,5.739-2.511,11.479-8.25,12.914c-0.717,0-1.435,0.359-2.152,0.359c-5.022,0-9.326-3.587-10.403-8.609
		c0-0.359-0.359-0.717-0.359-1.076c-0.359,0.359-1.076,0.717-1.435,1.076c-6.098,4.305-13.272,6.457-20.446,6.457
		c-2.511,0-4.663-0.359-7.174-0.717c-8.968,7.892-21.164,13.631-38.023,13.631h-0.359c-16.859,0-29.055-5.739-38.023-13.631
		c-2.152,0.359-4.663,0.717-7.174,0.717c-7.533,0-14.707-2.152-20.446-6.457c-0.359-0.359-0.717-0.717-1.435-1.076
		c0,0.359-0.359,0.717-0.359,1.076c-1.076,5.022-5.381,8.609-10.403,8.609c-0.717,0-1.435,0-2.152-0.359
		c-5.739-1.076-9.685-6.815-8.25-12.914c0.717-3.587,1.794-6.815,2.87-10.403c-3.946-3.228-7.533-6.098-11.479-9.326v21.523v320.327
		c0,24.392,19.729,44.48,44.48,44.48c24.392,0,44.48-19.729,44.48-44.48v-291.99c2.511,0.359,5.381,0.359,7.892,0.359h0.717
		c2.87,0,5.381-0.359,7.892-0.359v291.989c0,24.392,19.729,44.48,44.48,44.48c24.392,0,44.48-19.729,44.48-44.48V450.897v-21.523
		c-3.587,3.228-7.533,6.098-11.479,9.326C387.317,442.288,388.393,445.517,389.111,449.104z"/>
	<path fill="#808080" stroke="#FFFFFF" stroke-width="2.8346" stroke-miterlimit="10" d="M238.453,324.632
		c1.794-17.577-11.479-33.36-29.055-35.154c-1.794,0-3.946-0.359-5.739-0.717c-1.076,3.946-1.435,7.892-1.794,11.837
		c0,11.479,4.305,22.957,13.272,36.588c2.511,3.946,5.381,7.533,8.609,11.479C231.638,343.643,237.377,335.034,238.453,324.632z"/>
	<path fill="#808080" stroke="#FFFFFF" stroke-width="2.8346" stroke-miterlimit="10" d="M385.882,337.545
		c8.968-13.272,12.914-25.11,13.272-36.588c0-3.946-0.717-7.892-1.794-11.837c-1.794,0.359-3.587,0.359-5.739,0.717
		c-17.577,1.435-30.849,17.218-29.055,35.154c1.076,10.403,6.457,19.012,14.707,24.033
		C380.502,345.078,383.371,341.132,385.882,337.545z"/>
	<path fill="#808080" stroke="#FFFFFF" stroke-width="2.8346" stroke-miterlimit="10" d="M479.505,246.433L479.505,246.433
		c-5.022,5.022-10.403,9.685-16.142,13.99c5.022,13.272,7.174,26.903,7.174,40.534c0,11.12-1.794,22.599-5.022,33.719
		c22.957-11.479,42.686-26.186,58.47-41.969l0,0l0,0l0,0c5.739-5.739,11.479-11.837,16.501-17.577
		c2.511-2.87,4.663-5.381,6.815-8.25l19.729,83.22l150.3-207.693H567.39c-3.946,0-7.892,0.717-11.479,2.152
		c-7.174,2.152-13.272,7.174-17.577,13.631c-3.228,4.305-5.739,9.685-7.174,15.424c-6.098,12.555-18.653,35.512-36.947,57.035
		C489.549,236.031,484.886,241.411,479.505,246.433z"/>
	<path fill="#808080" stroke="#FFFFFF" stroke-width="2.8346" stroke-miterlimit="10" d="M150.569,248.227
		c-7.892,14.707-13.272,32.643-13.272,52.73c0,22.957,7.533,48.067,24.034,72.459c12.914,19.37,31.208,38.741,55.959,58.47
		c8.25-21.523,21.523-39.099,30.132-49.502c-18.294-15.066-30.49-29.055-38.741-40.893c-11.12-16.859-14.348-29.773-14.348-40.534
		c0-9.326,2.511-17.935,6.815-26.186c2.511-5.022,6.098-10.044,9.685-14.348c-1.076,8.968-2.152,15.424-3.587,17.577
		c-0.717,1.435-1.435,2.511-1.794,3.946c1.435,0,2.511,0.359,3.946,0.359c10.403,1.076,20.088,6.098,26.903,13.99
		c6.815,8.25,10.044,18.294,8.968,28.697c-1.076,12.196-7.533,22.599-16.859,29.055c6.815,7.533,14.707,15.066,24.034,22.599
		c2.152-2.511,3.587-3.946,3.587-3.946l0,0c4.305-4.305,11.12-4.305,15.066,0c4.305,4.305,4.305,11.12,0,15.066
		c0,0-0.359,0.359-1.076,1.435c-0.359,0.359-0.359,0.359-0.717,0.717c2.152,1.435,4.305,3.228,6.457,4.663
		c16.142,11.479,20.088,33.719,8.609,49.861c-3.587,5.022-8.609,9.326-14.348,11.837c7.533,5.381,17.218,8.968,30.132,8.968
		s22.599-3.587,30.132-8.968c-5.739-2.511-10.403-6.457-13.99-11.837c-11.479-16.142-7.533-38.741,8.609-49.861
		c2.152-1.435,4.305-3.228,6.457-4.663c-0.359-0.359-0.359-0.717-0.717-0.717c-0.717-1.076-1.076-1.435-1.076-1.435
		c-4.305-4.305-4.305-11.12,0-15.066c4.305-4.305,11.12-4.305,15.066,0c0,0,1.435,1.435,3.587,3.946
		c8.968-7.533,17.218-15.066,24.034-22.599c-9.326-6.457-15.783-16.859-16.859-29.055c-1.076-10.403,2.152-20.805,8.968-28.697
		c6.815-8.25,16.142-12.914,26.903-13.99c1.435,0,2.511-0.359,3.946-0.359c-0.717-1.435-1.076-2.511-1.794-3.946
		c-1.076-2.152-2.152-8.968-3.587-17.577c3.587,4.663,7.174,9.326,9.685,14.348c4.305,8.25,6.815,16.859,6.815,26.186
		c0,10.761-3.228,23.675-14.348,40.534c-7.892,12.196-20.446,25.827-38.741,40.893c8.609,10.044,21.881,27.979,30.132,49.502
		c24.751-19.729,43.045-39.099,55.959-58.47c16.501-24.392,24.033-49.502,24.033-72.459c0-20.088-5.739-38.023-13.272-52.73
		c-7.892-14.707-17.935-26.903-27.262-36.588c-16.501-16.501-32.284-25.827-37.306-28.697c-0.717-0.359-1.435-0.717-1.435-1.076l0,0
		c0,0-0.359,0-0.359-0.359c-2.87-1.435-6.098-2.87-9.326-3.228c-15.783,24.751-43.045,40.534-73.894,40.534
		c-6.815,0-13.272-0.717-20.088-2.152c-22.24-5.381-41.252-18.653-53.806-37.664c-3.228,0.359-6.457,1.794-9.326,3.228
		c0,0-0.359,0-0.359,0.359l0,0c-0.359,0-0.717,0.359-1.435,1.076c-5.022,2.87-20.805,12.196-37.306,28.697
		C168.505,221.323,158.461,233.161,150.569,248.227z"/>
	<path fill="#808080" stroke="#FFFFFF" stroke-width="2.8346" stroke-miterlimit="10" d="M255.312,453.049
		c8.968,0,17.935-4.304,23.675-12.196c8.968-12.914,6.098-30.849-6.815-39.817c-2.511-1.794-4.663-3.587-7.174-5.022
		c-2.87,3.228-6.098,7.533-9.685,12.555c-7.174,10.044-15.066,23.316-19.729,36.947c1.076,0.717,2.152,1.794,3.587,2.511
		C243.834,451.256,249.573,453.049,255.312,453.049z"/>
	<path fill="#808080" stroke="#FFFFFF" stroke-width="2.8346" stroke-miterlimit="10" d="M345.707,453.049
		c5.739,0,11.479-1.794,16.501-5.381c1.076-0.717,2.152-1.794,3.587-2.511c-6.457-20.446-20.805-39.458-29.414-49.502
		c-2.152,1.794-4.663,3.587-7.174,5.022c-12.914,8.968-16.142,26.903-6.815,39.817C327.772,448.745,336.739,453.049,345.707,453.049
		z"/>
	
		<ellipse fill="#808080" stroke="#FFFFFF" stroke-width="2.8346" stroke-miterlimit="10" cx="300.584" cy="130.853" rx="80.706" ry="80.706"/>
</g>
</svg>
